# xmcd CD database file generated by OrangeCD 6.3
#
# Track frame offsets:
#	150
#	23247
#	41194
#	61413
#	86146
#	120252
#	142854
#	162770
#	184729
#	200848
#	221679
#	238060
#	250711
#	269667
#	289281
#	310617
#	330719
#
# Disc length: 4689 seconds
#
# Revision: 2
# Processed by: cddbd v1.5.2PL0 Copyright (c) Steve Scherf et al.
# Submitted via: OrangeCD 6.3
#
DISCID=fe124f11
DTITLE=Various Artist - Compilation 2010
DYEAR=2010
DGENRE=Compilation
TTITLE0=Fantasy
TTITLE1=See The Light
TTITLE2=Sausalito
TTITLE3=Geoff Downes Keyboard Solo
TTITLE4=Open Your Eyes
TTITLE5=The Smile Has Left Your Eyes
TTITLE6=I Go To Extremes
TTITLE7=We Didn't Start The Fire
TTITLE8=Call Me
TTITLE9=Heart Of Glass
TTITLE10=One Way Or Another
TTITLE11=North Star
TTITLE12=All That Jazz
TTITLE13=Hands To Heaven
TTITLE14=How Can I Fall
TTITLE15=Fields of Gray
TTITLE16=Harbor Lights
EXTD=
EXTT0=
EXTT1=
EXTT2=
EXTT3=
EXTT4=
EXTT5=
EXTT6=
EXTT7=
EXTT8=
EXTT9=
EXTT10=
EXTT11=
EXTT12=
EXTT13=
EXTT14=
EXTT15=
EXTT16=
PLAYORDER=
